<svg viewBox="0 0 24 24" xmlns="http://www.w3.org/2000/svg" xmlns:xlink="http://www.w3.org/1999/xlink" width="24.000000" height="24.000000" fill="none">
	<rect id="Frame" width="24.000000" height="24.000000" x="0.000000" y="0.000000" fill="rgb(46,43,68)" fill-opacity="0" />
	<path id="Vector" d="M0 0L24 0L24 24L0 24L0 0Z" fill-rule="nonzero" />
	<path id="Vector" d="M15.402 21L15.402 14.034L17.735 14.034L18.084 11.326L15.402 11.326L15.402 9.598C15.402 8.814 15.62 8.279 16.744 8.279L18.178 8.279L18.178 5.857C17.4838 5.78334 16.7861 5.74762 16.088 5.75C14.021 5.75 12.606 7.012 12.606 9.33L12.606 11.326L10.268 11.326L10.268 14.034L12.606 14.034L12.606 21L4 21C3.73478 21 3.48043 20.8946 3.29289 20.7071C3.10536 20.5196 3 20.2652 3 20L3 4C3 3.73478 3.10536 3.48043 3.29289 3.29289C3.48043 3.10536 3.73478 3 4 3L20 3C20.2652 3 20.5196 3.10536 20.7071 3.29289C20.8946 3.48043 21 3.73478 21 4L21 20C21 20.2652 20.8946 20.5196 20.7071 20.7071C20.5196 20.8946 20.2652 21 20 21L15.402 21Z" fill="rgb(44,45,53)" fill-rule="nonzero" />
</svg>
