<svg width="16" height="16" viewBox="0 0 16 16" fill="none" xmlns="http://www.w3.org/2000/svg">
<g clip-path="url(#clip0_17_2)">
<mask id="path-1-outside-1_17_2" maskUnits="userSpaceOnUse" x="0" y="0" width="11" height="14" fill="black">
<rect fill="white" width="11" height="14"/>
<path d="M3.52 2.06C3.69733 1.63067 3.94933 1.47667 4.276 1.598C4.36933 1.39267 4.44867 1.262 4.514 1.206C4.58867 1.15 4.66333 1.108 4.738 1.08C4.81267 1.04267 4.892 1.00533 4.976 0.967999C5.06 0.930666 5.19067 0.897999 5.368 0.87C5.54533 0.842 5.74133 0.827999 5.956 0.827999C6.17067 0.818666 6.38533 0.827999 6.6 0.855999C6.824 0.883999 7.01067 0.944666 7.16 1.038C7.524 1.25267 7.60333 1.598 7.398 2.074C7.41667 2.06467 7.412 2.074 7.384 2.102L7.258 2.34L7.16 2.466C7.11333 2.51267 6.96867 2.79733 6.726 3.32C6.53 3.69333 6.32933 4.062 6.124 4.426C5.788 5.05133 5.58267 5.45267 5.508 5.63C5.83467 5.45267 6.21267 5.196 6.642 4.86C7.454 4.23467 7.972 3.86133 8.196 3.74C8.42 3.61867 8.574 3.544 8.658 3.516C8.75133 3.488 8.84 3.48333 8.924 3.502C9.008 3.51133 9.09667 3.53467 9.19 3.572L9.54 3.712C9.764 3.78667 9.88533 4.05733 9.904 4.524C9.91333 4.98133 9.82 5.32667 9.624 5.56C8.77467 6.66133 7.818 7.39867 6.754 7.772C6.42733 7.89333 6.09133 7.996 5.746 8.08C6.24067 8.136 6.712 8.46267 7.16 9.06C7.524 9.54533 7.78533 10.0447 7.944 10.558C8.112 11.0713 8.24267 11.454 8.336 11.706C8.42933 11.9487 8.46667 12.1353 8.448 12.266C8.43867 12.406 8.35933 12.5087 8.21 12.574C8.07 12.6487 7.82733 12.7187 7.482 12.784C7.32333 12.812 6.99667 12.6253 6.502 12.224C6.28733 12.0467 6.05867 11.8553 5.816 11.65C5.57333 11.4353 5.33067 11.2347 5.088 11.048C4.528 10.6093 4.136 10.3807 3.912 10.362C3.89333 10.362 3.856 10.3527 3.8 10.334L3.548 10.964C3.41733 11.272 3.282 11.5987 3.142 11.944C3.01133 12.28 2.85267 12.5833 2.666 12.854C2.37667 13.05 2.04067 13.1293 1.658 13.092C1.21933 13.0453 0.93 12.868 0.79 12.56C0.696667 12.2707 0.850667 11.4213 1.252 10.012C1.52267 9.02267 1.756 8.15467 1.952 7.408C2.148 6.66133 2.316 6.04533 2.456 5.56C2.596 5.06533 2.69867 4.68267 2.764 4.412C2.82933 4.132 2.89467 3.86133 2.96 3.6C3.11867 2.99333 3.30533 2.48 3.52 2.06Z"/>
</mask>
<path d="M3.52 2.06C3.69733 1.63067 3.94933 1.47667 4.276 1.598C4.36933 1.39267 4.44867 1.262 4.514 1.206C4.58867 1.15 4.66333 1.108 4.738 1.08C4.81267 1.04267 4.892 1.00533 4.976 0.967999C5.06 0.930666 5.19067 0.897999 5.368 0.87C5.54533 0.842 5.74133 0.827999 5.956 0.827999C6.17067 0.818666 6.38533 0.827999 6.6 0.855999C6.824 0.883999 7.01067 0.944666 7.16 1.038C7.524 1.25267 7.60333 1.598 7.398 2.074C7.41667 2.06467 7.412 2.074 7.384 2.102L7.258 2.34L7.16 2.466C7.11333 2.51267 6.96867 2.79733 6.726 3.32C6.53 3.69333 6.32933 4.062 6.124 4.426C5.788 5.05133 5.58267 5.45267 5.508 5.63C5.83467 5.45267 6.21267 5.196 6.642 4.86C7.454 4.23467 7.972 3.86133 8.196 3.74C8.42 3.61867 8.574 3.544 8.658 3.516C8.75133 3.488 8.84 3.48333 8.924 3.502C9.008 3.51133 9.09667 3.53467 9.19 3.572L9.54 3.712C9.764 3.78667 9.88533 4.05733 9.904 4.524C9.91333 4.98133 9.82 5.32667 9.624 5.56C8.77467 6.66133 7.818 7.39867 6.754 7.772C6.42733 7.89333 6.09133 7.996 5.746 8.08C6.24067 8.136 6.712 8.46267 7.16 9.06C7.524 9.54533 7.78533 10.0447 7.944 10.558C8.112 11.0713 8.24267 11.454 8.336 11.706C8.42933 11.9487 8.46667 12.1353 8.448 12.266C8.43867 12.406 8.35933 12.5087 8.21 12.574C8.07 12.6487 7.82733 12.7187 7.482 12.784C7.32333 12.812 6.99667 12.6253 6.502 12.224C6.28733 12.0467 6.05867 11.8553 5.816 11.65C5.57333 11.4353 5.33067 11.2347 5.088 11.048C4.528 10.6093 4.136 10.3807 3.912 10.362C3.89333 10.362 3.856 10.3527 3.8 10.334L3.548 10.964C3.41733 11.272 3.282 11.5987 3.142 11.944C3.01133 12.28 2.85267 12.5833 2.666 12.854C2.37667 13.05 2.04067 13.1293 1.658 13.092C1.21933 13.0453 0.93 12.868 0.79 12.56C0.696667 12.2707 0.850667 11.4213 1.252 10.012C1.52267 9.02267 1.756 8.15467 1.952 7.408C2.148 6.66133 2.316 6.04533 2.456 5.56C2.596 5.06533 2.69867 4.68267 2.764 4.412C2.82933 4.132 2.89467 3.86133 2.96 3.6C3.11867 2.99333 3.30533 2.48 3.52 2.06Z" fill="#1935A3"/>
<path d="M3.52 2.06L3.69809 2.15102L3.70177 2.14382L3.70485 2.13635L3.52 2.06ZM4.276 1.598L4.20636 1.78548L4.38099 1.85035L4.45807 1.68076L4.276 1.598ZM4.514 1.206L4.39375 1.04566L4.38384 1.05415L4.514 1.206ZM4.738 1.08L4.80823 1.26727L4.81805 1.26358L4.82744 1.25888L4.738 1.08ZM4.976 0.967999L5.05723 1.15076L4.976 0.967999ZM5.368 0.87L5.39919 1.06755H5.39919L5.368 0.87ZM5.956 0.827999V1.02819L5.96469 1.02781L5.956 0.827999ZM6.6 0.855999L6.57413 1.05432L6.57519 1.05445L6.6 0.855999ZM7.16 1.038L7.05397 1.20765L7.0584 1.21027L7.16 1.038ZM7.398 2.074L7.21436 1.99478L6.9973 2.49795L7.48744 2.25288L7.398 2.074ZM7.384 2.102L7.24258 1.96058L7.22131 1.98184L7.20724 2.00842L7.384 2.102ZM7.258 2.34L7.41587 2.46279L7.42659 2.44901L7.43476 2.43358L7.258 2.34ZM7.16 2.466L7.30142 2.60742L7.31023 2.59862L7.31787 2.58879L7.16 2.466ZM6.726 3.32L6.90329 3.41308L6.9074 3.40422L6.726 3.32ZM6.124 4.426L5.94977 4.32771L5.94782 4.33134L6.124 4.426ZM5.508 5.63L5.32367 5.55239L5.10249 6.0777L5.60342 5.80577L5.508 5.63ZM6.642 4.86L6.51997 4.70154L6.51874 4.7025L6.642 4.86ZM8.196 3.74L8.10074 3.56414V3.56414L8.196 3.74ZM8.658 3.516L8.6005 3.32435L8.59476 3.32626L8.658 3.516ZM8.924 3.502L8.88062 3.69724L8.89117 3.69958L8.90191 3.70078L8.924 3.502ZM9.19 3.572L9.26428 3.3863H9.26428L9.19 3.572ZM9.54 3.712L9.46559 3.89802L9.47676 3.90174L9.54 3.712ZM9.904 4.524L10.104 4.51992L10.1038 4.51601L9.904 4.524ZM9.624 5.56L9.47073 5.43125L9.46563 5.43786L9.624 5.56ZM6.754 7.772L6.68777 7.58325L6.68436 7.58451L6.754 7.772ZM5.746 8.08L5.69873 7.88567L5.7235 8.27873L5.746 8.08ZM7.16 9.06L7 9.18V9.18L7.16 9.06ZM7.944 10.558L7.75289 10.6171L7.75392 10.6202L7.944 10.558ZM8.336 11.706L8.14844 11.7755L8.14933 11.7778L8.336 11.706ZM8.448 12.266L8.25001 12.2377L8.24894 12.2452L8.24844 12.2527L8.448 12.266ZM8.21 12.574L8.12984 12.3908L8.12273 12.3939L8.11588 12.3975L8.21 12.574ZM7.482 12.784L7.51676 12.981L7.51918 12.9805L7.482 12.784ZM6.502 12.224L6.37462 12.3782L6.37599 12.3793L6.502 12.224ZM5.816 11.65L5.68345 11.7998L5.68681 11.8027L5.816 11.65ZM5.088 11.048L4.96466 11.2055L4.96606 11.2065L5.088 11.048ZM3.912 10.362L3.92861 10.1627L3.92032 10.162H3.912V10.362ZM3.8 10.334L3.86325 10.1443L3.68434 10.0846L3.6143 10.2597L3.8 10.334ZM3.548 10.964L3.73216 11.0421L3.7337 11.0383L3.548 10.964ZM3.142 11.944L2.95663 11.8689L2.9556 11.8715L3.142 11.944ZM2.666 12.854L2.77817 13.0196L2.8093 12.9985L2.83064 12.9675L2.666 12.854ZM1.658 13.092L1.63684 13.2909L1.63858 13.2911L1.658 13.092ZM0.79 12.56L0.599658 12.6214L0.60318 12.6323L0.607927 12.6428L0.79 12.56ZM1.252 10.012L1.44436 10.0668L1.44491 10.0648L1.252 10.012ZM1.952 7.408L2.14545 7.45878V7.45878L1.952 7.408ZM2.456 5.56L2.64817 5.61543L2.64844 5.61446L2.456 5.56ZM2.764 4.412L2.95842 4.45893L2.95877 4.45745L2.764 4.412ZM2.96 3.6L2.7665 3.54939L2.76597 3.55149L2.96 3.6ZM3.52 2.06L3.70485 2.13635C3.78595 1.94 3.87187 1.83864 3.94629 1.79316C4.01025 1.75407 4.08893 1.74187 4.20636 1.78548L4.276 1.598L4.34564 1.41051C4.1364 1.3328 3.92575 1.33693 3.73771 1.45184C3.56013 1.56036 3.43138 1.75067 3.33515 1.98365L3.52 2.06ZM4.276 1.598L4.45807 1.68076C4.50284 1.58227 4.54234 1.50598 4.57646 1.44979C4.61227 1.39081 4.63541 1.36535 4.64416 1.35785L4.514 1.206L4.38384 1.05415C4.32726 1.10265 4.27806 1.17053 4.23454 1.2422C4.18932 1.31668 4.14249 1.4084 4.09393 1.51524L4.276 1.598ZM4.514 1.206L4.634 1.366C4.69598 1.31952 4.75409 1.28757 4.80823 1.26727L4.738 1.08L4.66778 0.892734C4.57258 0.928433 4.48136 0.980481 4.394 1.046L4.514 1.206ZM4.738 1.08L4.82744 1.25888C4.89915 1.22303 4.97572 1.18699 5.05723 1.15076L4.976 0.967999L4.89477 0.785237C4.80828 0.823679 4.72619 0.862299 4.64856 0.901114L4.738 1.08ZM4.976 0.967999L5.05723 1.15076C5.11652 1.12441 5.22602 1.09489 5.39919 1.06755L5.368 0.87L5.33681 0.672447C5.15531 0.701104 5.00348 0.736923 4.89477 0.785237L4.976 0.967999ZM5.368 0.87L5.39919 1.06755C5.56444 1.04146 5.74983 1.028 5.956 1.028V0.827999V0.627999C5.73284 0.627999 5.52622 0.642539 5.33681 0.672447L5.368 0.87ZM5.956 0.827999L5.96469 1.02781C6.16773 1.01898 6.37083 1.0278 6.57413 1.05432L6.6 0.855999L6.62587 0.657679C6.39983 0.628197 6.17361 0.618349 5.94731 0.628188L5.956 0.827999ZM6.6 0.855999L6.57519 1.05445C6.77819 1.07983 6.93523 1.13337 7.054 1.2076L7.16 1.038L7.266 0.8684C7.0861 0.755963 6.86981 0.688169 6.62481 0.657543L6.6 0.855999ZM7.16 1.038L7.0584 1.21027C7.20297 1.29553 7.27255 1.39383 7.29758 1.50278C7.32422 1.61874 7.30764 1.77854 7.21436 1.99478L7.398 2.074L7.58164 2.15322C7.69369 1.89346 7.74012 1.6426 7.68742 1.41322C7.63312 1.17684 7.48103 0.995137 7.2616 0.865726L7.16 1.038ZM7.398 2.074L7.48744 2.25288C7.48609 2.25356 7.48055 2.25632 7.47225 2.25933C7.46869 2.26063 7.44293 2.2705 7.40762 2.2705C7.38902 2.2705 7.35064 2.26791 7.30943 2.24436C7.26115 2.21677 7.22794 2.17112 7.21513 2.11988C7.20424 2.07634 7.21088 2.04073 7.21507 2.02396C7.21969 2.00551 7.226 1.99179 7.22961 1.98456C7.23678 1.97022 7.24389 1.96072 7.24566 1.95838C7.24831 1.95484 7.25009 1.95283 7.25011 1.9528C7.25014 1.95277 7.24805 1.95511 7.24258 1.96058L7.384 2.102L7.52542 2.24342C7.53395 2.23489 7.54295 2.22557 7.55114 2.2162C7.55531 2.21144 7.5736 2.19101 7.58739 2.16344C7.59158 2.15505 7.5983 2.1403 7.60313 2.12097C7.60754 2.10333 7.61422 2.06699 7.60318 2.02287C7.59023 1.97105 7.55669 1.92496 7.5079 1.89707C7.46618 1.87323 7.4271 1.8705 7.40763 1.8705C7.37057 1.8705 7.34233 1.88095 7.33556 1.88342C7.32406 1.8876 7.31457 1.89211 7.30856 1.89511L7.398 2.074ZM7.384 2.102L7.20724 2.00842L7.08124 2.24642L7.258 2.34L7.43476 2.43358L7.56076 2.19558L7.384 2.102ZM7.258 2.34L7.10013 2.21721L7.00213 2.34321L7.16 2.466L7.31787 2.58879L7.41587 2.46279L7.258 2.34ZM7.16 2.466L7.01858 2.32458C6.98535 2.35781 6.95539 2.40758 6.93343 2.44561C6.90695 2.49147 6.87507 2.55134 6.8382 2.62389C6.76427 2.76937 6.66627 2.97371 6.5446 3.23578L6.726 3.32L6.9074 3.40422C7.02839 3.14363 7.12406 2.94429 7.1948 2.80511C7.23026 2.73533 7.25847 2.68261 7.27982 2.64564C7.3057 2.60083 7.31132 2.59753 7.30142 2.60742L7.16 2.466ZM6.726 3.32L6.54892 3.22703C6.35385 3.5986 6.15414 3.9655 5.9498 4.32774L6.124 4.426L6.2982 4.52426C6.50453 4.1585 6.70615 3.78806 6.90308 3.41297L6.726 3.32ZM6.124 4.426L5.94782 4.33134C5.61325 4.95402 5.40279 5.36449 5.32367 5.55239L5.508 5.63L5.69233 5.70761C5.76254 5.54085 5.96275 5.14865 6.30018 4.52066L6.124 4.426ZM5.508 5.63L5.60342 5.80577C5.94322 5.6213 6.33082 5.3575 6.76526 5.0175L6.642 4.86L6.51874 4.7025C6.09452 5.0345 5.72611 5.28403 5.41258 5.45423L5.508 5.63ZM6.642 4.86L6.76403 5.01846C7.58086 4.38941 8.08455 4.02782 8.29126 3.91586L8.196 3.74L8.10074 3.56414C7.85945 3.69484 7.32714 4.07993 6.51997 4.70154L6.642 4.86ZM8.196 3.74L8.29126 3.91586C8.51739 3.79337 8.65645 3.72733 8.72125 3.70574L8.658 3.516L8.59476 3.32626C8.49155 3.36067 8.32261 3.44396 8.10074 3.56414L8.196 3.74ZM8.658 3.516L8.71547 3.70757C8.78046 3.68807 8.83421 3.68693 8.88062 3.69724L8.924 3.502L8.96739 3.30676C8.84579 3.27974 8.72221 3.28793 8.60053 3.32444L8.658 3.516ZM8.924 3.502L8.90191 3.70078C8.965 3.70779 9.03606 3.72583 9.11572 3.7577L9.19 3.572L9.26428 3.3863C9.15728 3.3435 9.051 3.31488 8.94609 3.30322L8.924 3.502ZM9.19 3.572L9.11572 3.75769L9.46572 3.8977L9.54 3.712L9.61428 3.5263L9.26428 3.3863L9.19 3.572ZM9.54 3.712L9.47676 3.90174C9.52267 3.91704 9.57246 3.95457 9.6165 4.05281C9.66248 4.15539 9.69533 4.31116 9.70416 4.53199L9.904 4.524L10.1038 4.51601C10.094 4.27017 10.0569 4.05727 9.9815 3.88919C9.90421 3.71677 9.78133 3.58162 9.60325 3.52226L9.54 3.712ZM9.904 4.524L9.70404 4.52808C9.71287 4.96049 9.62331 5.24988 9.47086 5.43136L9.624 5.56L9.77714 5.68864C10.0167 5.40346 10.1138 5.00218 10.104 4.51992L9.904 4.524ZM9.624 5.56L9.46563 5.43786C8.63439 6.51573 7.70757 7.22546 6.68778 7.58328L6.754 7.772L6.82022 7.96072C7.92843 7.57187 8.91495 6.80694 9.78238 5.68214L9.624 5.56ZM6.754 7.772L6.68436 7.58451C6.36516 7.70308 6.03663 7.80347 5.69873 7.88567L5.746 8.08L5.79327 8.27433C6.14604 8.18853 6.48951 8.08359 6.82364 7.95948L6.754 7.772ZM5.746 8.08L5.7235 8.27873C6.14112 8.32601 6.56857 8.60476 7 9.18L7.16 9.06L7.32 8.94C6.85543 8.32057 6.34021 7.94599 5.7685 7.88127L5.746 8.08ZM7.16 9.06L7 9.18C7.35198 9.6493 7.60185 10.1283 7.75292 10.6171L7.944 10.558L8.13508 10.4989C7.96881 9.96102 7.69602 9.44136 7.32 8.94L7.16 9.06ZM7.944 10.558L7.75392 10.6202C7.92209 11.1341 8.05373 11.5197 8.14845 11.7755L8.336 11.706L8.52355 11.6365C8.4316 11.3883 8.30191 11.0086 8.13408 10.4958L7.944 10.558ZM8.336 11.706L8.14933 11.7778C8.24015 12.0139 8.26109 12.1602 8.25001 12.2377L8.448 12.266L8.64599 12.2943C8.67224 12.1105 8.61851 11.8834 8.52267 11.6342L8.336 11.706ZM8.448 12.266L8.24844 12.2527C8.24619 12.2865 8.23664 12.3084 8.22324 12.3257C8.20869 12.3445 8.18151 12.3682 8.12984 12.3908L8.21 12.574L8.29016 12.7572C8.38783 12.7145 8.47498 12.6541 8.53976 12.5703C8.6057 12.485 8.64047 12.3855 8.64756 12.2793L8.448 12.266ZM8.21 12.574L8.11588 12.3975C8.00486 12.4567 7.78842 12.5225 7.44482 12.5875L7.482 12.784L7.51918 12.9805C7.86625 12.9149 8.13514 12.8406 8.30412 12.7505L8.21 12.574ZM7.482 12.784L7.44724 12.587C7.45353 12.5859 7.43951 12.5896 7.39365 12.5747C7.35036 12.5605 7.2921 12.5341 7.21723 12.4914C7.06754 12.4058 6.87184 12.2665 6.62801 12.0687L6.502 12.224L6.37599 12.3793C6.62683 12.5828 6.84179 12.7375 7.01877 12.8386C7.10723 12.8892 7.1913 12.9293 7.26935 12.9548C7.34482 12.9795 7.43114 12.9961 7.51676 12.981L7.482 12.784ZM6.502 12.224L6.62938 12.0698C6.41539 11.893 6.18734 11.7022 5.94519 11.4973L5.816 11.65L5.68681 11.8027C5.93 12.0084 6.15927 12.2003 6.37462 12.3782L6.502 12.224ZM5.816 11.65L5.94851 11.5002C5.70262 11.2827 5.45643 11.0791 5.20994 10.8895L5.088 11.048L4.96606 11.2065C5.2049 11.3902 5.44405 11.588 5.68349 11.7998L5.816 11.65ZM5.088 11.048L5.21133 10.8906C4.9277 10.6684 4.68173 10.4955 4.47477 10.3747C4.27406 10.2577 4.08754 10.1759 3.92861 10.1627L3.912 10.362L3.89539 10.5613C3.96046 10.5667 4.08194 10.6087 4.27323 10.7203C4.45827 10.8282 4.6883 10.989 4.96467 11.2054L5.088 11.048ZM3.912 10.362V10.162C3.91774 10.162 3.92192 10.1623 3.92403 10.1626C3.92518 10.1627 3.92603 10.1628 3.92655 10.1628C3.92708 10.1629 3.92736 10.163 3.92738 10.163C3.9274 10.163 3.92721 10.1629 3.9268 10.1629C3.92639 10.1628 3.92581 10.1627 3.92503 10.1625C3.92346 10.1622 3.9213 10.1617 3.91851 10.161C3.90668 10.158 3.88865 10.1527 3.86325 10.1443L3.8 10.334L3.73675 10.5237C3.76735 10.5339 3.79599 10.5427 3.82149 10.549C3.84298 10.5544 3.87684 10.562 3.912 10.562V10.362ZM3.8 10.334L3.6143 10.2597L3.3623 10.8897L3.548 10.964L3.7337 11.0383L3.9857 10.4083L3.8 10.334ZM3.548 10.964L3.36388 10.8859C3.23275 11.195 3.09701 11.5226 2.95665 11.8689L3.142 11.944L3.32735 12.0191C3.46699 11.6747 3.60191 11.349 3.73212 11.0421L3.548 10.964ZM3.142 11.944L2.9556 11.8715C2.83003 12.1944 2.6784 12.4837 2.50136 12.7405L2.666 12.854L2.83064 12.9675C3.02693 12.6829 3.19264 12.3656 3.3284 12.0165L3.142 11.944ZM2.666 12.854L2.55383 12.6884C2.30706 12.8556 2.01864 12.9262 1.67742 12.8929L1.658 13.092L1.63858 13.2911C2.0627 13.3324 2.44627 13.2444 2.77817 13.0196L2.666 12.854ZM1.658 13.092L1.67916 12.8931C1.28644 12.8513 1.07385 12.7011 0.972073 12.4772L0.79 12.56L0.607927 12.6428C0.78615 13.0349 1.15223 13.2393 1.63684 13.2909L1.658 13.092ZM0.79 12.56L0.980342 12.4986C0.968468 12.4618 0.958874 12.3841 0.966092 12.2486C0.973063 12.1178 0.994614 11.9495 1.03229 11.7417C1.1076 11.3264 1.24443 10.7688 1.44435 10.0668L1.252 10.012L1.05965 9.95722C0.858238 10.6645 0.717401 11.2363 0.638709 11.6703C0.599386 11.8872 0.574854 12.0735 0.566658 12.2274C0.558709 12.3766 0.564865 12.5135 0.599658 12.6214L0.79 12.56ZM1.252 10.012L1.44491 10.0648C1.7157 9.07498 1.94923 8.20629 2.14545 7.45878L1.952 7.408L1.75855 7.35722C1.56277 8.10304 1.32963 8.97035 1.05909 9.95922L1.252 10.012ZM1.952 7.408L2.14545 7.45878C2.34123 6.71295 2.50878 6.09864 2.64816 5.61543L2.456 5.56L2.26384 5.50457C2.12322 5.99203 1.95477 6.60972 1.75855 7.35722L1.952 7.408ZM2.456 5.56L2.64844 5.61446C2.78867 5.11901 2.89217 4.7334 2.95842 4.45893L2.764 4.412L2.56958 4.36507C2.50517 4.63194 2.40333 5.01166 2.26356 5.50554L2.456 5.56ZM2.764 4.412L2.95877 4.45745C3.02388 4.1784 3.08897 3.90876 3.15403 3.64851L2.96 3.6L2.76597 3.55149C2.70037 3.81391 2.63479 4.0856 2.56923 4.36655L2.764 4.412ZM2.96 3.6L3.15349 3.65061C3.30962 3.05365 3.49175 2.55473 3.69809 2.15102L3.52 2.06L3.34191 1.96898C3.11892 2.40527 2.92772 2.93301 2.76651 3.54939L2.96 3.6Z" fill="black" mask="url(#path-1-outside-1_17_2)"/>
<mask id="path-3-outside-2_17_2" maskUnits="userSpaceOnUse" x="5" y="9" width="11" height="6" fill="black">
<rect fill="white" x="5" y="9" width="11" height="6"/>
<path d="M5.42 10.214C5.42 10.066 5.47 9.952 5.57 9.872C5.67 9.788 5.808 9.746 5.984 9.746L7.436 13.232L7.322 13.514L7.364 13.532L8.9 9.746C9.076 9.746 9.214 9.788 9.314 9.872C9.418 9.956 9.47 10.072 9.47 10.22V14.054C9.098 14.054 8.912 13.9 8.912 13.592V11.066L9.068 10.652L9.02 10.64L7.682 13.892C7.662 13.94 7.63 13.978 7.586 14.006C7.542 14.038 7.496 14.054 7.448 14.054C7.396 14.054 7.348 14.04 7.304 14.012C7.26 13.984 7.228 13.944 7.208 13.892L5.87 10.634L5.822 10.652L5.978 11.06V13.592C5.978 13.744 5.93 13.86 5.834 13.94C5.742 14.016 5.604 14.054 5.42 14.054V10.214ZM11.3086 14.054C10.9646 14.054 10.6866 13.962 10.4746 13.778C10.2666 13.594 10.1626 13.352 10.1626 13.052C10.1626 12.748 10.2726 12.504 10.4926 12.32C10.7126 12.132 11.0026 12.038 11.3626 12.038C11.7466 12.038 12.0626 12.174 12.3106 12.446L12.3346 12.422C12.2906 12.374 12.2406 12.324 12.1846 12.272V12.02C12.1846 11.816 12.1206 11.658 11.9926 11.546C11.8646 11.434 11.6826 11.378 11.4466 11.378C11.0266 11.378 10.7266 11.544 10.5466 11.876C10.4826 11.844 10.4286 11.802 10.3846 11.75C10.3446 11.694 10.3246 11.638 10.3246 11.582C10.3246 11.474 10.3786 11.372 10.4866 11.276C10.5946 11.176 10.7366 11.096 10.9126 11.036C11.0926 10.976 11.2806 10.946 11.4766 10.946C11.8566 10.946 12.1546 11.04 12.3706 11.228C12.5906 11.416 12.7006 11.676 12.7006 12.008V13.652C12.7006 13.792 12.6606 13.894 12.5806 13.958C12.5006 14.022 12.3746 14.054 12.2026 14.054V13.772C12.2866 13.684 12.3326 13.632 12.3406 13.616L12.3166 13.592C12.0566 13.9 11.7206 14.054 11.3086 14.054ZM11.3986 13.64C11.6466 13.64 11.8406 13.588 11.9806 13.484C12.1246 13.38 12.1966 13.236 12.1966 13.052C12.1966 12.868 12.1266 12.722 11.9866 12.614C11.8466 12.506 11.6546 12.452 11.4106 12.452C11.1826 12.452 11.0026 12.506 10.8706 12.614C10.7426 12.718 10.6786 12.864 10.6786 13.052C10.6786 13.24 10.7406 13.386 10.8646 13.49C10.9926 13.59 11.1706 13.64 11.3986 13.64ZM14.8138 11.408C14.5898 11.408 14.4038 11.476 14.2558 11.612C14.1078 11.744 14.0338 11.906 14.0338 12.098V13.67C14.0338 13.802 13.9898 13.9 13.9018 13.964C13.8178 14.024 13.6878 14.054 13.5118 14.054V11.39C13.5118 11.094 13.6798 10.946 14.0158 10.946V11.312C13.9518 11.38 13.9078 11.44 13.8838 11.492L13.9078 11.516C14.1638 11.136 14.4838 10.946 14.8678 10.946C15.0118 10.946 15.1218 10.982 15.1978 11.054C15.2738 11.122 15.3118 11.206 15.3118 11.306C15.3118 11.378 15.2938 11.442 15.2578 11.498C15.1458 11.438 14.9978 11.408 14.8138 11.408Z"/>
</mask>
<path d="M5.42 10.214C5.42 10.066 5.47 9.952 5.57 9.872C5.67 9.788 5.808 9.746 5.984 9.746L7.436 13.232L7.322 13.514L7.364 13.532L8.9 9.746C9.076 9.746 9.214 9.788 9.314 9.872C9.418 9.956 9.47 10.072 9.47 10.22V14.054C9.098 14.054 8.912 13.9 8.912 13.592V11.066L9.068 10.652L9.02 10.64L7.682 13.892C7.662 13.94 7.63 13.978 7.586 14.006C7.542 14.038 7.496 14.054 7.448 14.054C7.396 14.054 7.348 14.04 7.304 14.012C7.26 13.984 7.228 13.944 7.208 13.892L5.87 10.634L5.822 10.652L5.978 11.06V13.592C5.978 13.744 5.93 13.86 5.834 13.94C5.742 14.016 5.604 14.054 5.42 14.054V10.214ZM11.3086 14.054C10.9646 14.054 10.6866 13.962 10.4746 13.778C10.2666 13.594 10.1626 13.352 10.1626 13.052C10.1626 12.748 10.2726 12.504 10.4926 12.32C10.7126 12.132 11.0026 12.038 11.3626 12.038C11.7466 12.038 12.0626 12.174 12.3106 12.446L12.3346 12.422C12.2906 12.374 12.2406 12.324 12.1846 12.272V12.02C12.1846 11.816 12.1206 11.658 11.9926 11.546C11.8646 11.434 11.6826 11.378 11.4466 11.378C11.0266 11.378 10.7266 11.544 10.5466 11.876C10.4826 11.844 10.4286 11.802 10.3846 11.75C10.3446 11.694 10.3246 11.638 10.3246 11.582C10.3246 11.474 10.3786 11.372 10.4866 11.276C10.5946 11.176 10.7366 11.096 10.9126 11.036C11.0926 10.976 11.2806 10.946 11.4766 10.946C11.8566 10.946 12.1546 11.04 12.3706 11.228C12.5906 11.416 12.7006 11.676 12.7006 12.008V13.652C12.7006 13.792 12.6606 13.894 12.5806 13.958C12.5006 14.022 12.3746 14.054 12.2026 14.054V13.772C12.2866 13.684 12.3326 13.632 12.3406 13.616L12.3166 13.592C12.0566 13.9 11.7206 14.054 11.3086 14.054ZM11.3986 13.64C11.6466 13.64 11.8406 13.588 11.9806 13.484C12.1246 13.38 12.1966 13.236 12.1966 13.052C12.1966 12.868 12.1266 12.722 11.9866 12.614C11.8466 12.506 11.6546 12.452 11.4106 12.452C11.1826 12.452 11.0026 12.506 10.8706 12.614C10.7426 12.718 10.6786 12.864 10.6786 13.052C10.6786 13.24 10.7406 13.386 10.8646 13.49C10.9926 13.59 11.1706 13.64 11.3986 13.64ZM14.8138 11.408C14.5898 11.408 14.4038 11.476 14.2558 11.612C14.1078 11.744 14.0338 11.906 14.0338 12.098V13.67C14.0338 13.802 13.9898 13.9 13.9018 13.964C13.8178 14.024 13.6878 14.054 13.5118 14.054V11.39C13.5118 11.094 13.6798 10.946 14.0158 10.946V11.312C13.9518 11.38 13.9078 11.44 13.8838 11.492L13.9078 11.516C14.1638 11.136 14.4838 10.946 14.8678 10.946C15.0118 10.946 15.1218 10.982 15.1978 11.054C15.2738 11.122 15.3118 11.206 15.3118 11.306C15.3118 11.378 15.2938 11.442 15.2578 11.498C15.1458 11.438 14.9978 11.408 14.8138 11.408Z" fill="#FF8F06"/>
<path d="M5.57 9.872L5.75746 10.1063L5.76296 10.1017L5.57 9.872ZM5.984 9.746L6.26094 9.63065L6.18403 9.446H5.984V9.746ZM7.436 13.232L7.71413 13.3444L7.76027 13.2303L7.71294 13.1166L7.436 13.232ZM7.322 13.514L7.04387 13.4016L6.93374 13.674L7.20382 13.7897L7.322 13.514ZM7.364 13.532L7.24582 13.8077L7.52699 13.9282L7.64199 13.6448L7.364 13.532ZM8.9 9.746V9.446H8.69796L8.62201 9.63322L8.9 9.746ZM9.314 9.872L9.12101 10.1018L9.1255 10.1054L9.314 9.872ZM9.47 14.054V14.354H9.77V14.054H9.47ZM8.912 11.066L8.63127 10.9602L8.612 11.0114V11.066H8.912ZM9.068 10.652L9.34873 10.7578L9.46748 10.4426L9.14076 10.361L9.068 10.652ZM9.02 10.64L9.09276 10.349L8.84122 10.2861L8.74256 10.5259L9.02 10.64ZM7.682 13.892L7.95893 14.0074L7.95944 14.0061L7.682 13.892ZM7.586 14.006L7.42494 13.7529L7.41708 13.7579L7.40955 13.7634L7.586 14.006ZM7.304 14.012L7.14294 14.2651L7.14294 14.2651L7.304 14.012ZM7.208 13.892L7.48807 13.7843L7.48551 13.778L7.208 13.892ZM5.87 10.634L6.14751 10.52L6.03701 10.251L5.76466 10.3531L5.87 10.634ZM5.822 10.652L5.71666 10.3711L5.43395 10.4771L5.54178 10.7591L5.822 10.652ZM5.978 11.06H6.278V11.0046L6.25822 10.9529L5.978 11.06ZM5.834 13.94L6.02507 14.1713L6.02606 14.1705L5.834 13.94ZM5.42 14.054H5.12V14.354H5.42V14.054ZM5.42 10.214H5.72C5.72 10.1412 5.74016 10.1201 5.75741 10.1063L5.57 9.872L5.38259 9.63774C5.19984 9.78394 5.12 9.99082 5.12 10.214H5.42ZM5.57 9.872L5.76296 10.1017C5.79265 10.0768 5.85396 10.046 5.984 10.046V9.746V9.446C5.76204 9.446 5.54735 9.49923 5.37704 9.64229L5.57 9.872ZM5.984 9.746L5.70706 9.86135L7.15906 13.3474L7.436 13.232L7.71294 13.1166L6.26094 9.63065L5.984 9.746ZM7.436 13.232L7.15787 13.1196L7.04387 13.4016L7.322 13.514L7.60013 13.6264L7.71413 13.3444L7.436 13.232ZM7.322 13.514L7.20382 13.7897L7.24582 13.8077L7.364 13.532L7.48218 13.2563L7.44018 13.2383L7.322 13.514ZM7.364 13.532L7.64199 13.6448L9.17799 9.85878L8.9 9.746L8.62201 9.63322L7.08601 13.4192L7.364 13.532ZM8.9 9.746V10.046C9.03004 10.046 9.09135 10.0768 9.12104 10.1017L9.314 9.872L9.50696 9.64229C9.33665 9.49923 9.12196 9.446 8.9 9.446V9.746ZM9.314 9.872L9.1255 10.1054C9.15083 10.1258 9.17 10.1516 9.17 10.22H9.47H9.77C9.77 9.99239 9.68517 9.78616 9.5025 9.63862L9.314 9.872ZM9.47 10.22H9.17V14.054H9.47H9.77V10.22H9.47ZM9.47 14.054V13.754C9.31791 13.754 9.25965 13.7214 9.24282 13.7074C9.23684 13.7025 9.212 13.6833 9.212 13.592H8.912H8.612C8.612 13.8087 8.68016 14.0205 8.86018 14.1696C9.02935 14.3096 9.25009 14.354 9.47 14.354V14.054ZM8.912 13.592H9.212V11.066H8.912H8.612V13.592H8.912ZM8.912 11.066L9.19273 11.1718L9.34873 10.7578L9.068 10.652L8.78727 10.5462L8.63127 10.9602L8.912 11.066ZM9.068 10.652L9.14076 10.361L9.09276 10.349L9.02 10.64L8.94724 10.931L8.99524 10.943L9.068 10.652ZM9.02 10.64L8.74256 10.5259L7.40456 13.7779L7.682 13.892L7.95944 14.0061L9.29744 10.7541L9.02 10.64ZM7.682 13.892L7.40508 13.7766C7.40628 13.7737 7.40893 13.7687 7.41353 13.7633C7.41812 13.7578 7.42251 13.7544 7.42494 13.7529L7.586 14.006L7.74706 14.2591C7.8427 14.1982 7.91523 14.1122 7.95892 14.0074L7.682 13.892ZM7.586 14.006L7.40955 13.7634C7.40862 13.7641 7.41208 13.7614 7.41994 13.7587C7.42816 13.7558 7.43795 13.754 7.448 13.754V14.054V14.354C7.56769 14.354 7.67431 14.3127 7.76245 14.2486L7.586 14.006ZM7.448 14.054V13.754C7.44928 13.754 7.45263 13.7542 7.457 13.7555C7.46136 13.7568 7.46419 13.7583 7.46506 13.7589L7.304 14.012L7.14294 14.2651C7.23492 14.3236 7.33877 14.354 7.448 14.354V14.054ZM7.304 14.012L7.46506 13.7589C7.4704 13.7623 7.47627 13.7673 7.48126 13.7736C7.48359 13.7765 7.48528 13.7791 7.48642 13.7811C7.48698 13.7821 7.48737 13.7829 7.48763 13.7835C7.48789 13.784 7.48801 13.7843 7.488 13.7843L7.208 13.892L6.928 13.9997C6.96938 14.1073 7.04094 14.2002 7.14294 14.2651L7.304 14.012ZM7.208 13.892L7.48551 13.778L6.14751 10.52L5.87 10.634L5.59249 10.748L6.93049 14.006L7.208 13.892ZM5.87 10.634L5.76466 10.3531L5.71666 10.3711L5.822 10.652L5.92734 10.9329L5.97534 10.9149L5.87 10.634ZM5.822 10.652L5.54178 10.7591L5.69778 11.1671L5.978 11.06L6.25822 10.9529L6.10222 10.5449L5.822 10.652ZM5.978 11.06H5.678V13.592H5.978H6.278V11.06H5.978ZM5.978 13.592H5.678C5.678 13.6761 5.6548 13.6988 5.64194 13.7095L5.834 13.94L6.02606 14.1705C6.2052 14.0212 6.278 13.8119 6.278 13.592H5.978ZM5.834 13.94L5.64294 13.7087C5.62709 13.7218 5.57022 13.754 5.42 13.754V14.054V14.354C5.63778 14.354 5.85691 14.3102 6.02506 14.1713L5.834 13.94ZM5.42 14.054H5.72V10.214H5.42H5.12V14.054H5.42ZM10.4746 13.778L10.2758 14.0027L10.2779 14.0046L10.4746 13.778ZM10.4926 12.32L10.6851 12.5501L10.6875 12.5481L10.4926 12.32ZM12.3106 12.446L12.0889 12.6481L12.3006 12.8803L12.5227 12.6581L12.3106 12.446ZM12.3346 12.422L12.5467 12.6341L12.7498 12.431L12.5557 12.2193L12.3346 12.422ZM12.1846 12.272H11.8846V12.4028L11.9804 12.4918L12.1846 12.272ZM10.5466 11.876L10.4124 12.1443L10.672 12.2741L10.8103 12.019L10.5466 11.876ZM10.3846 11.75L10.1405 11.9244L10.1476 11.9344L10.1556 11.9438L10.3846 11.75ZM10.4866 11.276L10.6859 11.5003L10.6904 11.4961L10.4866 11.276ZM10.9126 11.036L10.8177 10.7514L10.8158 10.752L10.9126 11.036ZM12.3706 11.228L12.1736 11.4543L12.1757 11.4561L12.3706 11.228ZM12.5806 13.958L12.3932 13.7237V13.7237L12.5806 13.958ZM12.2026 14.054H11.9026V14.354H12.2026V14.054ZM12.2026 13.772L11.9856 13.5649L11.9026 13.6518V13.772H12.2026ZM12.3406 13.616L12.6089 13.7502L12.7056 13.5568L12.5527 13.4039L12.3406 13.616ZM12.3166 13.592L12.5287 13.3799L12.2979 13.1491L12.0873 13.3985L12.3166 13.592ZM11.9806 13.484L11.8049 13.2408L11.8017 13.2432L11.9806 13.484ZM11.9866 12.614L11.8033 12.8515V12.8515L11.9866 12.614ZM10.8706 12.614L11.0598 12.8468L11.0605 12.8462L10.8706 12.614ZM10.8646 13.49L10.6717 13.72L10.6799 13.7264L10.8646 13.49ZM11.3086 14.054V13.754C11.0199 13.754 10.8171 13.678 10.6712 13.5514L10.4746 13.778L10.2779 14.0046C10.5561 14.246 10.9093 14.354 11.3086 14.354V14.054ZM10.4746 13.778L10.6734 13.5533C10.5353 13.4312 10.4626 13.2738 10.4626 13.052H10.1626H9.86258C9.86258 13.4302 9.99783 13.7568 10.2758 14.0027L10.4746 13.778ZM10.1626 13.052H10.4626C10.4626 12.8308 10.5377 12.6733 10.685 12.5501L10.4926 12.32L10.3001 12.0899C10.0074 12.3347 9.86258 12.6652 9.86258 13.052H10.1626ZM10.4926 12.32L10.6875 12.5481C10.8409 12.417 11.056 12.338 11.3626 12.338V12.038V11.738C10.9491 11.738 10.5843 11.847 10.2977 12.0919L10.4926 12.32ZM11.3626 12.038V12.338C11.6663 12.338 11.9005 12.4415 12.0889 12.6481L12.3106 12.446L12.5323 12.2439C12.2247 11.9065 11.8268 11.738 11.3626 11.738V12.038ZM12.3106 12.446L12.5227 12.6581L12.5467 12.6341L12.3346 12.422L12.1224 12.2099L12.0984 12.2339L12.3106 12.446ZM12.3346 12.422L12.5557 12.2193C12.5055 12.1644 12.4496 12.1087 12.3887 12.0522L12.1846 12.272L11.9804 12.4918C12.0315 12.5393 12.0757 12.5836 12.1134 12.6247L12.3346 12.422ZM12.1846 12.272H12.4846V12.02H12.1846H11.8846V12.272H12.1846ZM12.1846 12.02H12.4846C12.4846 11.7484 12.3962 11.5005 12.1901 11.3202L11.9926 11.546L11.795 11.7718C11.8449 11.8155 11.8846 11.8836 11.8846 12.02H12.1846ZM11.9926 11.546L12.1901 11.3202C11.9895 11.1446 11.7271 11.078 11.4466 11.078V11.378V11.678C11.638 11.678 11.7397 11.7234 11.795 11.7718L11.9926 11.546ZM11.4466 11.378V11.078C11.1971 11.078 10.9647 11.1274 10.7613 11.24C10.5562 11.3535 10.3973 11.522 10.2828 11.733L10.5466 11.876L10.8103 12.019C10.8759 11.898 10.9569 11.8175 11.0518 11.765C11.1484 11.7116 11.2761 11.678 11.4466 11.678V11.378ZM10.5466 11.876L10.6807 11.6077C10.6512 11.5929 10.63 11.5756 10.6136 11.5562L10.3846 11.75L10.1556 11.9438C10.2271 12.0284 10.3139 12.0951 10.4124 12.1443L10.5466 11.876ZM10.3846 11.75L10.6287 11.5756C10.6224 11.5668 10.6214 11.5632 10.6221 11.5651C10.6229 11.5675 10.6246 11.5735 10.6246 11.582H10.3246H10.0246C10.0246 11.7136 10.0726 11.8293 10.1405 11.9244L10.3846 11.75ZM10.3246 11.582H10.6246C10.6246 11.5803 10.6245 11.5757 10.6302 11.5649C10.6368 11.5524 10.6522 11.5302 10.6859 11.5002L10.4866 11.276L10.2873 11.0518C10.138 11.1845 10.0246 11.362 10.0246 11.582H10.3246ZM10.4866 11.276L10.6904 11.4961C10.7606 11.4311 10.863 11.3699 11.0094 11.32L10.9126 11.036L10.8158 10.752C10.6101 10.8221 10.4285 10.9209 10.2828 11.0559L10.4866 11.276ZM10.9126 11.036L11.0074 11.3206C11.1559 11.2711 11.3117 11.246 11.4766 11.246V10.946V10.646C11.2494 10.646 11.0293 10.6809 10.8177 10.7514L10.9126 11.036ZM11.4766 10.946V11.246C11.8082 11.246 12.028 11.3275 12.1736 11.4543L12.3706 11.228L12.5675 11.0017C12.2812 10.7525 11.905 10.646 11.4766 10.646V10.946ZM12.3706 11.228L12.1757 11.4561C12.3188 11.5783 12.4006 11.7493 12.4006 12.008H12.7006H13.0006C13.0006 11.6027 12.8624 11.2537 12.5655 10.9999L12.3706 11.228ZM12.7006 12.008H12.4006V13.652H12.7006H13.0006V12.008H12.7006ZM12.7006 13.652H12.4006C12.4006 13.6945 12.3944 13.7161 12.3913 13.724C12.3891 13.7296 12.3893 13.7268 12.3932 13.7237L12.5806 13.958L12.768 14.1923C12.9429 14.0523 13.0006 13.8476 13.0006 13.652H12.7006ZM12.5806 13.958L12.3932 13.7237C12.3943 13.7229 12.3846 13.731 12.3522 13.7392C12.3197 13.7475 12.2712 13.754 12.2026 13.754V14.054V14.354C12.4004 14.354 12.6092 14.3193 12.768 14.1923L12.5806 13.958ZM12.2026 14.054H12.5026V13.772H12.2026H11.9026V14.054H12.2026ZM12.2026 13.772L12.4196 13.9791C12.4626 13.9341 12.4981 13.896 12.5248 13.8658C12.538 13.8508 12.551 13.8357 12.5624 13.8213C12.569 13.813 12.5914 13.7851 12.6089 13.7502L12.3406 13.616L12.0723 13.4818C12.0808 13.4647 12.0888 13.4534 12.09 13.4516C12.0924 13.4482 12.0936 13.4469 12.0925 13.4482C12.0904 13.4508 12.0852 13.4572 12.0754 13.4682C12.0561 13.49 12.0266 13.5219 11.9856 13.5649L12.2026 13.772ZM12.3406 13.616L12.5527 13.4039L12.5287 13.3799L12.3166 13.592L12.1044 13.8041L12.1284 13.8281L12.3406 13.616ZM12.3166 13.592L12.0873 13.3985C11.8858 13.6373 11.6345 13.754 11.3086 13.754V14.054V14.354C11.8067 14.354 12.2274 14.1627 12.5458 13.7855L12.3166 13.592ZM11.3986 13.64V13.94C11.6847 13.94 11.95 13.8804 12.1595 13.7248L11.9806 13.484L11.8017 13.2432C11.7312 13.2956 11.6085 13.34 11.3986 13.34V13.64ZM11.9806 13.484L12.1562 13.7272C12.3816 13.5645 12.4966 13.3282 12.4966 13.052H12.1966H11.8966C11.8966 13.1438 11.8676 13.1955 11.8049 13.2408L11.9806 13.484ZM12.1966 13.052H12.4966C12.4966 12.7794 12.3869 12.5439 12.1698 12.3765L11.9866 12.614L11.8033 12.8515C11.8663 12.9001 11.8966 12.9566 11.8966 13.052H12.1966ZM11.9866 12.614L12.1698 12.3765C11.9606 12.2151 11.6961 12.152 11.4106 12.152V12.452V12.752C11.6131 12.752 11.7326 12.7969 11.8033 12.8515L11.9866 12.614ZM11.4106 12.452V12.152C11.1367 12.152 10.8819 12.2171 10.6806 12.3818L10.8706 12.614L11.0605 12.8462C11.1233 12.7949 11.2284 12.752 11.4106 12.752V12.452ZM10.8706 12.614L10.6814 12.3812C10.4729 12.5505 10.3786 12.7879 10.3786 13.052H10.6786H10.9786C10.9786 12.9401 11.0122 12.8855 11.0598 12.8468L10.8706 12.614ZM10.6786 13.052H10.3786C10.3786 13.3127 10.4685 13.5493 10.6718 13.7199L10.8646 13.49L11.0574 13.2601C11.0127 13.2227 10.9786 13.1673 10.9786 13.052H10.6786ZM10.8646 13.49L10.6799 13.7264C10.8783 13.8814 11.1301 13.94 11.3986 13.94V13.64V13.34C11.211 13.34 11.1069 13.2986 11.0493 13.2536L10.8646 13.49ZM14.2558 11.612L14.4555 11.8359L14.4588 11.8329L14.2558 11.612ZM13.9018 13.964L14.0762 14.2081L14.0782 14.2066L13.9018 13.964ZM13.5118 14.054H13.2118V14.354H13.5118V14.054ZM14.0158 10.946H14.3158V10.646H14.0158V10.946ZM14.0158 11.312L14.2343 11.5176L14.3158 11.431V11.312H14.0158ZM13.8838 11.492L13.6114 11.3663L13.5237 11.5562L13.6717 11.7041L13.8838 11.492ZM13.9078 11.516L13.6957 11.7281L13.9532 11.9856L14.1566 11.6836L13.9078 11.516ZM15.1978 11.054L14.9914 11.2719L14.9978 11.2776L15.1978 11.054ZM15.2578 11.498L15.1161 11.7624L15.3603 11.8933L15.5102 11.6602L15.2578 11.498ZM14.8138 11.408V11.108C14.5239 11.108 14.2627 11.1983 14.0528 11.3911L14.2558 11.612L14.4588 11.8329C14.5449 11.7537 14.6557 11.708 14.8138 11.708V11.408ZM14.2558 11.612L14.0561 11.3881C13.8467 11.5749 13.7338 11.8173 13.7338 12.098H14.0338H14.3338C14.3338 11.9947 14.3689 11.9131 14.4555 11.8359L14.2558 11.612ZM14.0338 12.098H13.7338V13.67H14.0338H14.3338V12.098H14.0338ZM14.0338 13.67H13.7338C13.7338 13.7031 13.7283 13.717 13.7271 13.7196C13.7265 13.7209 13.7265 13.7208 13.727 13.7201C13.7275 13.7195 13.7273 13.72 13.7253 13.7214L13.9018 13.964L14.0782 14.2066C14.2608 14.0739 14.3338 13.8749 14.3338 13.67H14.0338ZM13.9018 13.964L13.7274 13.7199C13.7191 13.7259 13.6648 13.754 13.5118 13.754V14.054V14.354C13.7108 14.354 13.9165 14.3221 14.0762 14.2081L13.9018 13.964ZM13.5118 14.054H13.8118V11.39H13.5118H13.2118V14.054H13.5118ZM13.5118 11.39H13.8118C13.8118 11.2988 13.8359 11.2823 13.8361 11.2821C13.8435 11.2756 13.8853 11.246 14.0158 11.246V10.946V10.646C13.8102 10.646 13.6 10.6904 13.4395 10.8319C13.2717 10.9797 13.2118 11.1852 13.2118 11.39H13.5118ZM14.0158 10.946H13.7158V11.312H14.0158H14.3158V10.946H14.0158ZM14.0158 11.312L13.7973 11.1064C13.7233 11.1851 13.6548 11.2723 13.6114 11.3663L13.8838 11.492L14.1562 11.6177C14.1608 11.6077 14.1803 11.5749 14.2343 11.5176L14.0158 11.312ZM13.8838 11.492L13.6717 11.7041L13.6957 11.7281L13.9078 11.516L14.1199 11.3039L14.0959 11.2799L13.8838 11.492ZM13.9078 11.516L14.1566 11.6836C14.3692 11.368 14.6039 11.246 14.8678 11.246V10.946V10.646C14.3637 10.646 13.9584 10.904 13.659 11.3484L13.9078 11.516ZM14.8678 10.946V11.246C14.9642 11.246 14.9893 11.2697 14.9915 11.2718L15.1978 11.054L15.4041 10.8362C15.2543 10.6943 15.0594 10.646 14.8678 10.646V10.946ZM15.1978 11.054L14.9978 11.2776C15.008 11.2867 15.0099 11.2916 15.01 11.2917C15.0102 11.2921 15.0105 11.2929 15.0109 11.2947C15.0112 11.2965 15.0118 11.3001 15.0118 11.306H15.3118H15.6118C15.6118 11.1187 15.536 10.9541 15.3978 10.8304L15.1978 11.054ZM15.3118 11.306H15.0118C15.0118 11.3254 15.0078 11.3321 15.0054 11.3358L15.2578 11.498L15.5102 11.6602C15.5798 11.5519 15.6118 11.4306 15.6118 11.306H15.3118ZM15.2578 11.498L15.3995 11.2336C15.2287 11.1421 15.0266 11.108 14.8138 11.108V11.408V11.708C14.969 11.708 15.0629 11.7339 15.1161 11.7624L15.2578 11.498Z" fill="black" mask="url(#path-3-outside-2_17_2)"/>
</g>
<defs>
<clipPath id="clip0_17_2">
<rect width="16" height="16" fill="white"/>
</clipPath>
</defs>
</svg>
